<svg width="163" height="155" version="1.1" xmlns="http://www.w3.org/2000/svg" desc="Created with imagetracer.js version 1.2.6" ><path fill="rgb(254,254,254)" stroke="rgb(254,254,254)" stroke-width="1" opacity="0.8941176470588236" d="M 78.5 0 L 86 0.5 L 78.5 1 L 78.5 0 Z " /><path fill="rgb(254,254,254)" stroke="rgb(254,254,254)" stroke-width="1" opacity="0.8941176470588236" d="M 46.5 8 L 45.5 10 L 46.5 8 Z " /><path fill="rgb(254,254,254)" stroke="rgb(254,254,254)" stroke-width="1" opacity="0.8941176470588236" d="M 41.5 11 L 34.5 19 L 41.5 11 Z " /><path fill="rgb(254,254,254)" stroke="rgb(254,254,254)" stroke-width="1" opacity="0.8941176470588236" d="M 122.5 11 L 123.5 13 L 122.5 11 Z " /><path fill="rgb(254,254,254)" stroke="rgb(254,254,254)" stroke-width="1" opacity="0.8941176470588236" d="M 67.5 17 L 70 17.5 L 67.5 18 L 67.5 17 Z " /><path fill="rgb(254,254,254)" stroke="rgb(254,254,254)" stroke-width="1" opacity="0.8941176470588236" d="M 92.5 17 L 95 17.5 L 92.5 18 L 92.5 17 Z " /><path fill="rgb(254,254,254)" stroke="rgb(254,254,254)" stroke-width="1" opacity="0.8941176470588236" d="M 128.5 17 L 131 21.5 L 130 21.5 L 128.5 17 Z " /><path fill="rgb(254,254,254)" stroke="rgb(254,254,254)" stroke-width="1" opacity="0.8941176470588236" d="M 51.5 22 L 50.5 24 L 51.5 22 Z " /><path fill="rgb(254,254,254)" stroke="rgb(254,254,254)" stroke-width="1" opacity="0.8941176470588236" d="M 31.5 24 L 32 25.5 L 30.5 28 L 30 26.5 L 31.5 24 Z " /><path fill="rgb(254,254,254)" stroke="rgb(254,254,254)" stroke-width="1" opacity="0.8941176470588236" d="M 114.5 24 L 115.5 26 L 114.5 24 Z " /><path fill="rgb(254,254,254)" stroke="rgb(254,254,254)" stroke-width="1" opacity="0.8941176470588236" d="M 45.5 26 L 44.5 28 L 45.5 26 Z " /><path fill="rgb(254,254,254)" stroke="rgb(254,254,254)" stroke-width="1" opacity="0.8941176470588236" d="M 41.5 29 L 40.5 31 L 41.5 29 Z " /><path fill="rgb(254,254,254)" stroke="rgb(254,254,254)" stroke-width="1" opacity="0.8941176470588236" d="M 122.5 30 L 125.5 34 L 122.5 30 Z " /><path fill="rgb(254,254,254)" stroke="rgb(254,254,254)" stroke-width="1" opacity="0.8941176470588236" d="M 38.5 32 L 37.5 34 L 38.5 32 Z " /><path fill="rgb(254,254,254)" stroke="rgb(254,254,254)" stroke-width="1" opacity="0.8941176470588236" d="M 32.5 45 L 33 48.5 L 32 48.5 L 32.5 45 Z " /><path fill="rgb(254,254,254)" stroke="rgb(254,254,254)" stroke-width="1" opacity="0.8941176470588236" d="M 130.5 46 L 131 48.5 L 130 48.5 L 130.5 46 Z " /><path fill="rgb(254,254,254)" stroke="rgb(254,254,254)" stroke-width="1" opacity="0.8941176470588236" d="M 22.5 50 L 23 56.5 L 22 56.5 L 22.5 50 Z " /><path fill="rgb(254,254,254)" stroke="rgb(254,254,254)" stroke-width="1" opacity="0.8941176470588236" d="M 31.5 53 L 32 55.5 L 31 55.5 L 31.5 53 Z " /><path fill="rgb(254,254,254)" stroke="rgb(254,254,254)" stroke-width="1" opacity="0.8941176470588236" d="M 23.5 64 L 24 67.5 L 23 67.5 L 23.5 64 Z " /><path fill="rgb(254,254,254)" stroke="rgb(254,254,254)" stroke-width="1" opacity="0.8941176470588236" d="M 118.5 70 L 121 70.5 L 118 71 L 117.5 88 L 117 71.5 L 118.5 70 Z " /><path fill="rgb(254,254,254)" stroke="rgb(254,254,254)" stroke-width="1" opacity="0.8941176470588236" d="M 139.5 70 L 140 72.5 L 139 72.5 L 139.5 70 Z " /><path fill="rgb(254,254,254)" stroke="rgb(254,254,254)" stroke-width="1" opacity="0.8941176470588236" d="M 24.5 71 L 25 75.5 L 24 75.5 L 24.5 71 Z " /><path fill="rgb(254,254,254)" stroke="rgb(254,254,254)" stroke-width="1" opacity="0.8941176470588236" d="M 54.5 75 L 57 75.5 L 54.5 76 L 54.5 75 Z " /><path fill="rgb(254,254,254)" stroke="rgb(254,254,254)" stroke-width="1" opacity="0.8941176470588236" d="M 139.5 75 L 140.5 77 L 139.5 75 Z " /><path fill="rgb(254,254,254)" stroke="rgb(254,254,254)" stroke-width="1" opacity="0.8941176470588236" d="M 22.5 76 L 21.5 78 L 22.5 76 Z " /><path fill="rgb(254,254,254)" stroke="rgb(254,254,254)" stroke-width="1" opacity="0.8941176470588236" d="M 58.5 76 L 59.5 78 L 58.5 76 Z " /><path fill="rgb(254,254,254)" stroke="rgb(254,254,254)" stroke-width="1" opacity="0.8941176470588236" d="M 104.5 76 L 104 77.5 L 103.5 79 L 103 77.5 L 104.5 76 Z " /><path fill="rgb(254,254,254)" stroke="rgb(254,254,254)" stroke-width="1" opacity="0.8941176470588236" d="M 19.5 78 L 18.5 80 L 19.5 78 Z " /><path fill="rgb(254,254,254)" stroke="rgb(254,254,254)" stroke-width="1" opacity="0.8941176470588236" d="M 144.5 78 L 145.5 80 L 144.5 78 Z " /><path fill="rgb(254,254,254)" stroke="rgb(254,254,254)" stroke-width="1" opacity="0.8941176470588236" d="M 60.5 81 L 61 83.5 L 60 83.5 L 60.5 81 Z " /><path fill="rgb(254,254,254)" stroke="rgb(254,254,254)" stroke-width="1" opacity="0.8941176470588236" d="M 14.5 82 L 11.5 86 L 14.5 82 Z " /><path fill="rgb(254,254,254)" stroke="rgb(254,254,254)" stroke-width="1" opacity="0.8941176470588236" d="M 102.5 84 L 103 91.5 L 102 91.5 L 102.5 84 Z " /><path fill="rgb(254,254,254)" stroke="rgb(254,254,254)" stroke-width="1" opacity="0.8941176470588236" d="M 151.5 85 L 153.5 88 L 151.5 85 Z " /><path fill="rgb(254,254,254)" stroke="rgb(254,254,254)" stroke-width="1" opacity="0.8941176470588236" d="M 45.5 89 L 46 94.5 L 45 94.5 L 45.5 89 Z " /><path fill="rgb(254,254,254)" stroke="rgb(254,254,254)" stroke-width="1" opacity="0.8941176470588236" d="M 51.5 90 L 52 92.5 L 51 92.5 L 51.5 90 Z " /><path fill="rgb(254,254,254)" stroke="rgb(254,254,254)" stroke-width="1" opacity="0.8941176470588236" d="M 111.5 92 L 112 99.5 L 111 99.5 L 111.5 92 Z " /><path fill="rgb(254,254,254)" stroke="rgb(254,254,254)" stroke-width="1" opacity="0.8941176470588236" d="M 52.5 97 L 53 99.5 L 52 99.5 L 52.5 97 Z " /><path fill="rgb(254,254,254)" stroke="rgb(254,254,254)" stroke-width="1" opacity="0.8941176470588236" d="M 61.5 98 L 62 108.5 L 61 108.5 L 61.5 98 Z " /><path fill="rgb(254,254,254)" stroke="rgb(254,254,254)" stroke-width="1" opacity="0.8941176470588236" d="M 46.5 101 L 47 103.5 L 46 103.5 L 46.5 101 Z " /><path fill="rgb(254,254,254)" stroke="rgb(254,254,254)" stroke-width="1" opacity="0.8941176470588236" d="M 160.5 103 L 161 106.5 L 160 106.5 L 160.5 103 Z " /><path fill="rgb(254,254,254)" stroke="rgb(254,254,254)" stroke-width="1" opacity="0.8941176470588236" d="M 116.5 104 L 117 106.5 L 116 106.5 L 116.5 104 Z " /><path fill="rgb(254,254,254)" stroke="rgb(254,254,254)" stroke-width="1" opacity="0.8941176470588236" d="M 101.5 105 L 102 110.5 L 101 110.5 L 101.5 105 Z " /><path fill="rgb(254,254,254)" stroke="rgb(254,254,254)" stroke-width="1" opacity="0.8941176470588236" d="M 110.5 107 L 111 110.5 L 110 110.5 L 110.5 107 Z " /><path fill="rgb(254,254,254)" stroke="rgb(254,254,254)" stroke-width="1" opacity="0.8941176470588236" d="M 47.5 109 L 48 113.5 L 47 113.5 L 47.5 109 Z " /><path fill="rgb(254,254,254)" stroke="rgb(254,254,254)" stroke-width="1" opacity="0.8941176470588236" d="M 1.5 112 L 2 118.5 L 1 118.5 L 1.5 112 Z " /><path fill="rgb(254,254,254)" stroke="rgb(254,254,254)" stroke-width="1" opacity="0.8941176470588236" d="M 161.5 113 L 162 119.5 L 161 119.5 L 161.5 113 Z " /><path fill="rgb(254,254,254)" stroke="rgb(254,254,254)" stroke-width="1" opacity="0.8941176470588236" d="M 115.5 115 L 116 118.5 L 115 118.5 L 115.5 115 Z " /><path fill="rgb(254,254,254)" stroke="rgb(254,254,254)" stroke-width="1" opacity="0.8941176470588236" d="M 100.5 119 L 101 124.5 L 100 124.5 L 100.5 119 Z " /><path fill="rgb(254,254,254)" stroke="rgb(254,254,254)" stroke-width="1" opacity="0.8941176470588236" d="M 48.5 122 L 49 124.5 L 48 124.5 L 48.5 122 Z " /><path fill="rgb(254,254,254)" stroke="rgb(254,254,254)" stroke-width="1" opacity="0.8941176470588236" d="M 114.5 123 L 115 131.5 L 114 131.5 L 114.5 123 Z " /><path fill="rgb(254,254,254)" stroke="rgb(254,254,254)" stroke-width="1" opacity="0.8941176470588236" d="M 53.5 127 L 54 135.5 L 53 135.5 L 53.5 127 Z " /><path fill="rgb(254,254,254)" stroke="rgb(254,254,254)" stroke-width="1" opacity="0.8941176470588236" d="M 5.5 131 L 6.5 133 L 5.5 131 Z " /><path fill="rgb(254,254,254)" stroke="rgb(254,254,254)" stroke-width="1" opacity="0.8941176470588236" d="M 109.5 131 L 110 133.5 L 109 133.5 L 109.5 131 Z " /><path fill="rgb(254,254,254)" stroke="rgb(254,254,254)" stroke-width="1" opacity="0.8941176470588236" d="M 63.5 133 L 64 135.5 L 63 135.5 L 63.5 133 Z " /><path fill="rgb(254,254,254)" stroke="rgb(254,254,254)" stroke-width="1" opacity="0.8941176470588236" d="M 9.5 137 L 10.5 139 L 9.5 137 Z " /><path fill="rgb(254,254,254)" stroke="rgb(254,254,254)" stroke-width="1" opacity="0.8941176470588236" d="M 49.5 139 L 50 145.5 L 49 145.5 L 49.5 139 Z " /><path fill="rgb(254,254,254)" stroke="rgb(254,254,254)" stroke-width="1" opacity="0.8941176470588236" d="M 54.5 139 L 55 144.5 L 54 144.5 L 54.5 139 Z " /><path fill="rgb(254,254,254)" stroke="rgb(254,254,254)" stroke-width="1" opacity="0.8941176470588236" d="M 99.5 139 L 100 147.5 L 99 147.5 L 99.5 139 Z " /><path fill="rgb(254,254,254)" stroke="rgb(254,254,254)" stroke-width="1" opacity="0.8941176470588236" d="M 152.5 139 L 151.5 141 L 152.5 139 Z " /><path fill="rgb(254,254,254)" stroke="rgb(254,254,254)" stroke-width="1" opacity="0.8941176470588236" d="M 64.5 141 L 65 146.5 L 64 146.5 L 64.5 141 Z " /><path fill="rgb(254,254,254)" stroke="rgb(254,254,254)" stroke-width="1" opacity="0.8941176470588236" d="M 108.5 141 L 109 146.5 L 108 146.5 L 108.5 141 Z " /><path fill="rgb(254,254,254)" stroke="rgb(254,254,254)" stroke-width="1" opacity="0.8941176470588236" d="M 148.5 143 L 146.5 146 L 148.5 143 Z " /><path fill="rgb(254,254,254)" stroke="rgb(254,254,254)" stroke-width="1" opacity="0.8941176470588236" d="M 20.5 147 L 21.5 149 L 20.5 147 Z " /><path fill="rgb(254,254,254)" stroke="rgb(254,254,254)" stroke-width="1" opacity="0.8941176470588236" d="M 114.5 148 L 115 150.5 L 114 150.5 L 114.5 148 Z " /><path fill="rgb(254,254,254)" stroke="rgb(254,254,254)" stroke-width="1" opacity="0.8941176470588236" d="M 109.5 149 L 110 151.5 L 108 152.5 L 109.5 149 Z " /><path fill="rgb(254,254,254)" stroke="rgb(254,254,254)" stroke-width="1" opacity="0.8941176470588236" d="M 115.5 152 L 116.5 154 L 115.5 152 Z " /><path fill="rgb(254,254,254)" stroke="rgb(254,254,254)" stroke-width="1" opacity="0.8941176470588236" d="M 125.5 153 L 128 153.5 L 125.5 154 L 125.5 153 Z " /><path fill="rgb(0,0,0)" stroke="rgb(0,0,0)" stroke-width="1" opacity="0" d="M 0 0 L 68 0.5 L 52.5 4 L 38.5 12 L 34 16.5 L 23 40.5 L 21 49.5 L 21 58.5 L 22 59.5 L 23 74.5 L 9 86.5 L 2 98.5 L 0.5 107 L 0 0 Z " /><path fill="rgb(0,0,0)" stroke="rgb(0,0,0)" stroke-width="1" opacity="0" d="M 96.5 0 L 163 0 L 163 108.5 L 162 108.5 L 161 97.5 Q 156.4 87.1 148.5 80 L 141 76 Q 139.8 70 143 67.5 L 144 53.5 L 138 33.5 Q 132.3 26.7 130 16.5 L 124.5 11 L 110.5 4 L 96.5 1 L 96.5 0 Z " /><path fill="rgb(0,0,0)" stroke="rgb(0,0,0)" stroke-width="1" opacity="0" d="M 68.5 18 L 94.5 18 Q 95.7 20.3 100.5 19 L 110.5 23 L 125 34.5 L 130 50.5 L 130 67.5 L 129 71 L 118.5 69 L 116 71.5 L 116 96.5 L 115 99.5 L 116 103.5 L 115 104.5 L 115 115.5 L 113 122.5 L 113 151.5 L 117 154.5 L 49.5 155 L 50 153.5 L 51 151.5 L 51 140.5 L 50 139.5 L 50 122.5 L 49 121.5 L 49 111.5 L 48 110.5 L 46 83.5 L 47.5 77 L 50 83.5 L 50 92.5 L 52 101.5 L 52 129.5 L 53 132.5 L 52 135.5 L 54 141.5 L 54 147.5 L 52 151.5 L 55.5 153 L 60.5 152 L 65 148.5 L 66 141.5 L 65 140.5 L 64 121.5 L 63 120.5 L 62 80.5 L 58.5 75 L 47 76 Q 48.3 71.4 45.5 70 L 34 71 Q 31.8 63.9 33 51.5 L 35 40.5 Q 37.9 32.4 44.5 28 L 52.5 23 L 68.5 18 Z M 107 74 L 105 75 L 102 78 Q 104 83 101 85 L 101 105 L 100 106 L 100 116 L 99 117 L 99 140 L 98 141 L 99 150 L 106 153 Q 110 154 111 152 L 109 146 Q 108 140 111 138 L 111 113 L 112 112 L 113 80 L 114 76 L 107 74 Z " /><path fill="rgb(0,0,0)" stroke="rgb(0,0,0)" stroke-width="1" opacity="0" d="M 0.5 122 Q 4.8 138.2 16.5 147 Q 24 153 36 154.5 L 0 155 L 0.5 122 Z " /><path fill="rgb(0,0,0)" stroke="rgb(0,0,0)" stroke-width="1" opacity="0" d="M 162.5 122 L 163 155 L 124 154.5 Q 146.2 153.2 155 138.5 L 162 125.5 L 162.5 122 Z " /><path fill="rgb(255,255,255)" stroke="rgb(255,255,255)" stroke-width="1" opacity="0.996078431372549" d="M 70.5 1 Q 109.7 -1.7 128 16.5 L 139 40.5 L 142 52.5 L 142 64.5 L 139.5 70 L 139 67.5 L 141 59.5 L 141 52.5 L 136 34.5 L 130 25.5 L 129 20.5 L 122.5 13 Q 112.1 5.9 97.5 3 Q 92.7 4.3 91.5 2 L 74.5 2 L 54.5 6 L 40 14 L 34 22.5 L 26 40.5 L 24 47.5 L 24 63.5 L 27 73.5 L 24.5 77 L 12 86.5 L 4 100.5 L 3 122.5 Q 7.1 134.1 14 142 L 16 142 Q 14.9 144.7 17.5 144 Q 23.7 150.3 34 152.5 L 31.5 153 Q 18.4 149.1 11 139.5 L 2 123.5 L 2 103.5 Q 6.2 88.2 17.5 80 L 25 76 L 23 63.5 L 23 46.5 L 28 31.5 L 34 19.5 L 42.5 11 L 53.5 5 L 70.5 1 Z " /><path fill="rgb(255,255,255)" stroke="rgb(255,255,255)" stroke-width="1" opacity="0.996078431372549" d="M 67.5 16 L 91 16.5 L 67.5 17 L 63.5 18 L 51.5 22 L 37 33.5 L 32 45.5 L 31 55.5 L 32 56.5 L 32 68.5 L 34.5 73 L 45 71 L 46 74.5 L 45 75.5 L 44.5 94 L 44 73.5 L 42.5 72 L 33.5 74 Q 27.8 66.2 30 50.5 L 33 38.5 L 37 31 L 39 31 Q 37.9 28.3 40.5 29 L 53.5 20 L 67.5 16 Z " /><path fill="rgb(255,255,255)" stroke="rgb(255,255,255)" stroke-width="1" opacity="0.996078431372549" d="M 95.5 17 L 100 17.5 L 95.5 18 L 95.5 17 Z " /><path fill="rgb(255,255,255)" stroke="rgb(255,255,255)" stroke-width="1" opacity="0.996078431372549" d="M 101.5 18 L 104.5 18 L 113.5 22 L 127 33.5 L 130 41.5 L 129 41.5 Q 127.8 33.7 122.5 30 L 111.5 22 L 101.5 19 L 101.5 18 Z " /><path fill="rgb(255,255,255)" stroke="rgb(255,255,255)" stroke-width="1" opacity="0.996078431372549" d="M 130.5 43 L 131 45.5 L 130 45.5 L 130.5 43 Z " /><path fill="rgb(255,255,255)" stroke="rgb(255,255,255)" stroke-width="1" opacity="0.996078431372549" d="M 131.5 47 L 132 69.5 L 129.5 73 L 126 72.5 L 130 72 L 131 69.5 L 131.5 47 Z " /><path fill="rgb(255,255,255)" stroke="rgb(255,255,255)" stroke-width="1" opacity="0.996078431372549" d="M 118 71 L 124 71.5 L 119 72 L 118.5 82 L 118 71 Z " /><path fill="rgb(255,255,255)" stroke="rgb(255,255,255)" stroke-width="1" opacity="0.996078431372549" d="M 138.5 71 Q 137.9 75.6 140.5 77 Q 147.3 79.3 151 84.5 Q 157.1 90.9 160 100.5 L 161 124.5 Q 156.8 135.3 149.5 143 Q 143.6 149.6 133.5 152 L 133.5 151 Q 145.7 147.7 152 138.5 L 159 126.5 Q 161.4 119.4 160 108.5 L 158 97.5 L 147 81 L 138 75.5 L 138.5 71 Z " /><path fill="rgb(255,255,255)" stroke="rgb(255,255,255)" stroke-width="1" opacity="0.996078431372549" d="M 107.5 75 L 111 76 L 112 78.5 L 111 80.5 L 112 81.5 L 112 91.5 L 111 92.5 L 110.5 107 L 110 92.5 L 110 90.5 L 110 77.5 L 108.5 76 L 105 77 L 104 80.5 L 102.5 110 L 102 92.5 L 103 91.5 L 103 79.5 L 105.5 76 L 107.5 75 Z " /><path fill="rgb(255,255,255)" stroke="rgb(255,255,255)" stroke-width="1" opacity="0.996078431372549" d="M 52.5 76 Q 58.8 74.8 60 78.5 L 59.5 83 Q 59.7 78.3 56.5 77 L 52 77 L 52 86.5 L 53 87.5 L 53 96.5 L 52 96.5 L 50 77 L 52.5 76 Z " /><path fill="rgb(255,255,255)" stroke="rgb(255,255,255)" stroke-width="1" opacity="0.996078431372549" d="M 60.5 84 L 61 103.5 L 60 103.5 L 60.5 84 Z " /><path fill="rgb(255,255,255)" stroke="rgb(255,255,255)" stroke-width="1" opacity="0.996078431372549" d="M 118.5 86 L 119 90.5 L 118 90.5 L 118.5 86 Z " /><path fill="rgb(255,255,255)" stroke="rgb(255,255,255)" stroke-width="1" opacity="0.996078431372549" d="M 117.5 92 L 118 103.5 L 117 103.5 L 117.5 92 Z " /><path fill="rgb(255,255,255)" stroke="rgb(255,255,255)" stroke-width="1" opacity="0.996078431372549" d="M 45.5 95 L 46 101.5 L 45 101.5 L 45.5 95 Z " /><path fill="rgb(255,255,255)" stroke="rgb(255,255,255)" stroke-width="1" opacity="0.996078431372549" d="M 53.5 99 L 54 126.5 L 53 126.5 L 53.5 99 Z " /><path fill="rgb(255,255,255)" stroke="rgb(255,255,255)" stroke-width="1" opacity="0.996078431372549" d="M 46.5 104 L 47 109.5 L 46 109.5 L 46.5 104 Z " /><path fill="rgb(255,255,255)" stroke="rgb(255,255,255)" stroke-width="1" opacity="0.996078431372549" d="M 116.5 107 L 117 117.5 L 116 117.5 L 116.5 107 Z " /><path fill="rgb(255,255,255)" stroke="rgb(255,255,255)" stroke-width="1" opacity="0.996078431372549" d="M 61.5 109 L 62 119.5 L 61 119.5 L 61.5 109 Z " /><path fill="rgb(255,255,255)" stroke="rgb(255,255,255)" stroke-width="1" opacity="0.996078431372549" d="M 101.5 111 L 102 122.5 L 101 122.5 L 101.5 111 Z " /><path fill="rgb(255,255,255)" stroke="rgb(255,255,255)" stroke-width="1" opacity="0.996078431372549" d="M 109.5 112 L 110 130.5 L 109 130.5 L 109.5 112 Z " /><path fill="rgb(255,255,255)" stroke="rgb(255,255,255)" stroke-width="1" opacity="0.996078431372549" d="M 47.5 114 L 48 120.5 L 47 120.5 L 47.5 114 Z " /><path fill="rgb(255,255,255)" stroke="rgb(255,255,255)" stroke-width="1" opacity="0.996078431372549" d="M 115.5 119 L 116 123.5 L 115 123.5 L 115.5 119 Z " /><path fill="rgb(255,255,255)" stroke="rgb(255,255,255)" stroke-width="1" opacity="0.996078431372549" d="M 62.5 123 L 64 143.5 L 63 143.5 L 62.5 123 Z " /><path fill="rgb(255,255,255)" stroke="rgb(255,255,255)" stroke-width="1" opacity="0.996078431372549" d="M 48.5 125 L 49 133.5 L 48 133.5 L 48.5 125 Z " /><path fill="rgb(255,255,255)" stroke="rgb(255,255,255)" stroke-width="1" opacity="0.996078431372549" d="M 100.5 125 L 101 148.5 L 102 149.5 L 100 148.5 L 100.5 125 Z " /><path fill="rgb(255,255,255)" stroke="rgb(255,255,255)" stroke-width="1" opacity="0.996078431372549" d="M 114.5 132 L 115 146.5 L 116 150.5 L 118.5 153 L 125 153.5 L 117.5 154 L 115 151.5 L 114 147.5 L 114.5 132 Z " /><path fill="rgb(255,255,255)" stroke="rgb(255,255,255)" stroke-width="1" opacity="0.996078431372549" d="M 54.5 134 Q 57.2 140.5 56 150 L 61 150.5 L 54 152 Q 55.7 147.5 55 139.5 Q 52.7 138.1 54.5 134 Z " /><path fill="rgb(255,255,255)" stroke="rgb(255,255,255)" stroke-width="1" opacity="0.996078431372549" d="M 108.5 138 L 109 140.5 L 108 140.5 L 108.5 138 Z " /><path fill="rgb(255,255,255)" stroke="rgb(255,255,255)" stroke-width="1" opacity="0.996078431372549" d="M 107.5 142 L 109 148.5 L 108 148.5 L 107.5 142 Z " /><path fill="rgb(255,255,255)" stroke="rgb(255,255,255)" stroke-width="1" opacity="0.996078431372549" d="M 63.5 145 L 64 148.5 L 62 149.5 L 63.5 145 Z " /><path fill="rgb(255,255,255)" stroke="rgb(255,255,255)" stroke-width="1" opacity="0.996078431372549" d="M 49.5 146 L 50 149.5 L 49 149.5 L 49.5 146 Z " /><path fill="rgb(255,255,255)" stroke="rgb(255,255,255)" stroke-width="1" opacity="0.996078431372549" d="M 103.5 150 L 108 151.5 L 105.5 152 L 103.5 150 Z " /><path fill="rgb(255,255,255)" stroke="rgb(255,255,255)" stroke-width="1" opacity="0.996078431372549" d="M 48.5 151 L 49 152.5 L 47.5 154 L 36.5 154 L 36.5 153 L 47.5 153 L 48.5 151 Z " /><path fill="rgb(255,255,255)" stroke="rgb(255,255,255)" stroke-width="1" opacity="0.996078431372549" d="M 127.5 152 L 132 152.5 L 127.5 153 L 127.5 152 Z " /><path fill="rgb(253,253,253)" stroke="rgb(253,253,253)" stroke-width="1" opacity="0.054901960784313725" d="M 68.5 0 L 73 0.5 L 68.5 1 L 68.5 0 Z " /><path fill="rgb(253,253,253)" stroke="rgb(253,253,253)" stroke-width="1" opacity="0.054901960784313725" d="M 90.5 0 L 96 0.5 L 90.5 1 L 90.5 0 Z " /><path fill="rgb(253,253,253)" stroke="rgb(253,253,253)" stroke-width="1" opacity="0.054901960784313725" d="M 63.5 1 L 66 1.5 L 63.5 2 L 63.5 1 Z " /><path fill="rgb(253,253,253)" stroke="rgb(253,253,253)" stroke-width="1" opacity="0.054901960784313725" d="M 97.5 1 L 100 1.5 L 97.5 2 L 97.5 1 Z " /><path fill="rgb(253,253,253)" stroke="rgb(253,253,253)" stroke-width="1" opacity="0.054901960784313725" d="M 58.5 2 L 61 2.5 L 58.5 3 L 58.5 2 Z " /><path fill="rgb(253,253,253)" stroke="rgb(253,253,253)" stroke-width="1" opacity="0.054901960784313725" d="M 109.5 4 L 112 5.5 L 110.5 5 L 109.5 4 Z " /><path fill="rgb(253,253,253)" stroke="rgb(253,253,253)" stroke-width="1" opacity="0.054901960784313725" d="M 48.5 6 L 47.5 8 L 45.5 9 L 46.5 7 L 48.5 6 Z " /><path fill="rgb(253,253,253)" stroke="rgb(253,253,253)" stroke-width="1" opacity="0.054901960784313725" d="M 41.5 10 L 39.5 13 L 35 16.5 L 32.5 21 L 32 19.5 L 38.5 12 L 41.5 10 Z " /><path fill="rgb(253,253,253)" stroke="rgb(253,253,253)" stroke-width="1" opacity="0.054901960784313725" d="M 122.5 10 L 130 16.5 L 131 18.5 L 129 17.5 L 124.5 12 L 122.5 10 Z " /><path fill="rgb(253,253,253)" stroke="rgb(253,253,253)" stroke-width="1" opacity="0.054901960784313725" d="M 78.5 17 L 86 17.5 L 78.5 18 L 78.5 17 Z " /><path fill="rgb(253,253,253)" stroke="rgb(253,253,253)" stroke-width="1" opacity="0.054901960784313725" d="M 65.5 18 L 68 18.5 L 65.5 19 L 65.5 18 Z " /><path fill="rgb(253,253,253)" stroke="rgb(253,253,253)" stroke-width="1" opacity="0.054901960784313725" d="M 95.5 18 L 98 18.5 L 95.5 19 L 95.5 18 Z " /><path fill="rgb(253,253,253)" stroke="rgb(253,253,253)" stroke-width="1" opacity="0.054901960784313725" d="M 104.5 20 L 108 21.5 L 106.5 22 L 104.5 20 Z " /><path fill="rgb(253,253,253)" stroke="rgb(253,253,253)" stroke-width="1" opacity="0.054901960784313725" d="M 51.5 23 L 50.5 25 L 51.5 23 Z " /><path fill="rgb(253,253,253)" stroke="rgb(253,253,253)" stroke-width="1" opacity="0.054901960784313725" d="M 111.5 23 L 112.5 25 L 111.5 23 Z " /><path fill="rgb(253,253,253)" stroke="rgb(253,253,253)" stroke-width="1" opacity="0.054901960784313725" d="M 30.5 24 L 31 25.5 L 25.5 37 L 25 34.5 L 30.5 24 Z " /><path fill="rgb(253,253,253)" stroke="rgb(253,253,253)" stroke-width="1" opacity="0.054901960784313725" d="M 114.5 25 L 116.5 28 L 114.5 25 Z " /><path fill="rgb(253,253,253)" stroke="rgb(253,253,253)" stroke-width="1" opacity="0.054901960784313725" d="M 46.5 26 L 45.5 28 L 46.5 26 Z " /><path fill="rgb(253,253,253)" stroke="rgb(253,253,253)" stroke-width="1" opacity="0.054901960784313725" d="M 133.5 26 L 135 28.5 L 134 28.5 L 133.5 26 Z " /><path fill="rgb(253,253,253)" stroke="rgb(253,253,253)" stroke-width="1" opacity="0.054901960784313725" d="M 118.5 28 L 119.5 30 L 118.5 28 Z " /><path fill="rgb(253,253,253)" stroke="rgb(253,253,253)" stroke-width="1" opacity="0.054901960784313725" d="M 41.5 30 L 38 34.5 L 34.5 43 L 34 40.5 Q 36.3 33.8 41.5 30 Z " /><path fill="rgb(253,253,253)" stroke="rgb(253,253,253)" stroke-width="1" opacity="0.054901960784313725" d="M 121.5 30 L 126 35.5 L 125 35.5 L 121.5 30 Z " /><path fill="rgb(253,253,253)" stroke="rgb(253,253,253)" stroke-width="1" opacity="0.054901960784313725" d="M 135.5 30 L 138 34.5 L 137 34.5 L 135.5 30 Z " /><path fill="rgb(253,253,253)" stroke="rgb(253,253,253)" stroke-width="1" opacity="0.054901960784313725" d="M 24.5 38 L 25 39.5 L 23.5 43 L 23 40.5 L 24.5 38 Z " /><path fill="rgb(253,253,253)" stroke="rgb(253,253,253)" stroke-width="1" opacity="0.054901960784313725" d="M 127.5 39 L 129 43.5 L 128 43.5 L 127.5 39 Z " /><path fill="rgb(253,253,253)" stroke="rgb(253,253,253)" stroke-width="1" opacity="0.054901960784313725" d="M 140.5 41 L 144 56.5 L 143 56.5 L 140 44.5 L 140.5 41 Z " /><path fill="rgb(253,253,253)" stroke="rgb(253,253,253)" stroke-width="1" opacity="0.054901960784313725" d="M 22.5 44 L 23 47.5 L 22 47.5 L 22.5 44 Z " /><path fill="rgb(253,253,253)" stroke="rgb(253,253,253)" stroke-width="1" opacity="0.054901960784313725" d="M 33.5 45 L 34 50.5 L 33 50.5 L 33.5 45 Z " /><path fill="rgb(253,253,253)" stroke="rgb(253,253,253)" stroke-width="1" opacity="0.054901960784313725" d="M 129.5 45 L 130 49.5 L 129 49.5 L 129.5 45 Z " /><path fill="rgb(253,253,253)" stroke="rgb(253,253,253)" stroke-width="1" opacity="0.054901960784313725" d="M 21.5 49 L 22 58.5 L 21 58.5 L 21.5 49 Z " /><path fill="rgb(253,253,253)" stroke="rgb(253,253,253)" stroke-width="1" opacity="0.054901960784313725" d="M 32.5 52 L 33 56.5 L 32 56.5 L 32.5 52 Z " /><path fill="rgb(253,253,253)" stroke="rgb(253,253,253)" stroke-width="1" opacity="0.054901960784313725" d="M 130.5 53 L 131 66.5 L 130 66.5 L 130.5 53 Z " /><path fill="rgb(253,253,253)" stroke="rgb(253,253,253)" stroke-width="1" opacity="0.054901960784313725" d="M 32.5 59 L 33 64.5 L 32 64.5 L 32.5 59 Z " /><path fill="rgb(253,253,253)" stroke="rgb(253,253,253)" stroke-width="1" opacity="0.054901960784313725" d="M 142.5 59 L 143 67.5 Q 140 70 140.5 76 L 140 70.5 L 142 67.5 L 142.5 59 Z " /><path fill="rgb(253,253,253)" stroke="rgb(253,253,253)" stroke-width="1" opacity="0.054901960784313725" d="M 22.5 63 L 23 69.5 L 22 69.5 L 22.5 63 Z " /><path fill="rgb(253,253,253)" stroke="rgb(253,253,253)" stroke-width="1" opacity="0.054901960784313725" d="M 33.5 67 L 34 69.5 L 33 69.5 L 33.5 67 Z " /><path fill="rgb(253,253,253)" stroke="rgb(253,253,253)" stroke-width="1" opacity="0.054901960784313725" d="M 129.5 68 L 130 70.5 L 127.5 72 L 127.5 71 Q 130.4 71.7 129.5 68 Z " /><path fill="rgb(253,253,253)" stroke="rgb(253,253,253)" stroke-width="1" opacity="0.054901960784313725" d="M 45.5 70 Q 48.3 71.4 47 76 L 51 76.5 L 49 77 L 50 82.5 L 49 82.5 L 47.5 77 L 46.5 83 L 46 71.5 L 45.5 70 Z " /><path fill="rgb(253,253,253)" stroke="rgb(253,253,253)" stroke-width="1" opacity="0.054901960784313725" d="M 34.5 71 L 38 71.5 L 34.5 72 L 34.5 71 Z " /><path fill="rgb(253,253,253)" stroke="rgb(253,253,253)" stroke-width="1" opacity="0.054901960784313725" d="M 116.5 71 L 117 93.5 L 116 93.5 L 116.5 71 Z " /><path fill="rgb(253,253,253)" stroke="rgb(253,253,253)" stroke-width="1" opacity="0.054901960784313725" d="M 23.5 72 L 24 74.5 L 18.5 79 L 20.5 76 L 23 74.5 L 23.5 72 Z " /><path fill="rgb(253,253,253)" stroke="rgb(253,253,253)" stroke-width="1" opacity="0.054901960784313725" d="M 58.5 75 L 61 78.5 L 60 78.5 L 58.5 75 Z " /><path fill="rgb(253,253,253)" stroke="rgb(253,253,253)" stroke-width="1" opacity="0.054901960784313725" d="M 104.5 75 L 103 77.5 L 102.5 81 L 102 77.5 L 104.5 75 Z " /><path fill="rgb(253,253,253)" stroke="rgb(253,253,253)" stroke-width="1" opacity="0.054901960784313725" d="M 111.5 75 L 114 76 L 113 79.5 L 112.5 94 L 112 78.5 L 113 77.5 L 111.5 75 Z " /><path fill="rgb(253,253,253)" stroke="rgb(253,253,253)" stroke-width="1" opacity="0.054901960784313725" d="M 142.5 76 L 147 79.5 L 144.5 78 L 142.5 76 Z " /><path fill="rgb(253,253,253)" stroke="rgb(253,253,253)" stroke-width="1" opacity="0.054901960784313725" d="M 16.5 79 L 9.5 87 L 16.5 79 Z " /><path fill="rgb(253,253,253)" stroke="rgb(253,253,253)" stroke-width="1" opacity="0.054901960784313725" d="M 61.5 80 L 62 93.5 L 61 93.5 L 61.5 80 Z " /><path fill="rgb(253,253,253)" stroke="rgb(253,253,253)" stroke-width="1" opacity="0.054901960784313725" d="M 148.5 80 Q 157.6 86.9 161 99.5 L 160 99.5 L 157 91.5 L 148.5 80 Z " /><path fill="rgb(253,253,253)" stroke="rgb(253,253,253)" stroke-width="1" opacity="0.054901960784313725" d="M 101.5 84 L 102 95.5 L 101 95.5 L 101.5 84 Z " /><path fill="rgb(253,253,253)" stroke="rgb(253,253,253)" stroke-width="1" opacity="0.054901960784313725" d="M 50.5 86 L 51 92.5 L 50 92.5 L 50.5 86 Z " /><path fill="rgb(253,253,253)" stroke="rgb(253,253,253)" stroke-width="1" opacity="0.054901960784313725" d="M 8.5 88 L 6.5 91 L 8.5 88 Z " /><path fill="rgb(253,253,253)" stroke="rgb(253,253,253)" stroke-width="1" opacity="0.054901960784313725" d="M 46.5 88 L 47 97.5 L 46 97.5 L 46.5 88 Z " /><path fill="rgb(253,253,253)" stroke="rgb(253,253,253)" stroke-width="1" opacity="0.054901960784313725" d="M 51.5 95 L 52 100.5 L 51 100.5 L 51.5 95 Z " /><path fill="rgb(253,253,253)" stroke="rgb(253,253,253)" stroke-width="1" opacity="0.054901960784313725" d="M 3.5 96 L 4 97.5 L 1.5 105 L 1 101.5 L 3.5 96 Z " /><path fill="rgb(253,253,253)" stroke="rgb(253,253,253)" stroke-width="1" opacity="0.054901960784313725" d="M 115.5 97 L 116 99.5 L 115 99.5 L 115.5 97 Z " /><path fill="rgb(253,253,253)" stroke="rgb(253,253,253)" stroke-width="1" opacity="0.054901960784313725" d="M 62.5 99 L 63 113.5 L 62 113.5 L 62.5 99 Z " /><path fill="rgb(253,253,253)" stroke="rgb(253,253,253)" stroke-width="1" opacity="0.054901960784313725" d="M 47.5 101 L 48 105.5 L 47 105.5 L 47.5 101 Z " /><path fill="rgb(253,253,253)" stroke="rgb(253,253,253)" stroke-width="1" opacity="0.054901960784313725" d="M 161.5 102 L 162 107.5 L 161 107.5 L 161.5 102 Z " /><path fill="rgb(253,253,253)" stroke="rgb(253,253,253)" stroke-width="1" opacity="0.054901960784313725" d="M 115.5 104 L 116 107.5 L 115 107.5 L 115.5 104 Z " /><path fill="rgb(253,253,253)" stroke="rgb(253,253,253)" stroke-width="1" opacity="0.054901960784313725" d="M 52.5 105 L 53 129.5 L 52 129.5 L 52.5 105 Z " /><path fill="rgb(253,253,253)" stroke="rgb(253,253,253)" stroke-width="1" opacity="0.054901960784313725" d="M 100.5 105 L 101 112.5 L 100 112.5 L 100.5 105 Z " /><path fill="rgb(253,253,253)" stroke="rgb(253,253,253)" stroke-width="1" opacity="0.054901960784313725" d="M 111.5 105 L 112 111.5 L 111 111.5 L 111.5 105 Z " /><path fill="rgb(253,253,253)" stroke="rgb(253,253,253)" stroke-width="1" opacity="0.054901960784313725" d="M 0.5 107 L 1 121.5 L 0 121.5 L 0.5 107 Z " /><path fill="rgb(253,253,253)" stroke="rgb(253,253,253)" stroke-width="1" opacity="0.054901960784313725" d="M 162.5 109 L 163 121.5 L 162 121.5 L 162.5 109 Z " /><path fill="rgb(253,253,253)" stroke="rgb(253,253,253)" stroke-width="1" opacity="0.054901960784313725" d="M 48.5 111 L 49 118.5 L 48 118.5 L 48.5 111 Z " /><path fill="rgb(253,253,253)" stroke="rgb(253,253,253)" stroke-width="1" opacity="0.054901960784313725" d="M 99.5 116 L 100 136.5 L 99 136.5 L 99.5 116 Z " /><path fill="rgb(253,253,253)" stroke="rgb(253,253,253)" stroke-width="1" opacity="0.054901960784313725" d="M 114.5 116 L 115 120.5 L 114 120.5 L 114.5 116 Z " /><path fill="rgb(253,253,253)" stroke="rgb(253,253,253)" stroke-width="1" opacity="0.054901960784313725" d="M 63.5 121 L 64 126.5 L 63 126.5 L 63.5 121 Z " /><path fill="rgb(253,253,253)" stroke="rgb(253,253,253)" stroke-width="1" opacity="0.054901960784313725" d="M 49.5 122 L 50 129.5 L 49 129.5 L 49.5 122 Z " /><path fill="rgb(253,253,253)" stroke="rgb(253,253,253)" stroke-width="1" opacity="0.054901960784313725" d="M 113.5 122 L 114 131.5 L 113 131.5 L 113.5 122 Z " /><path fill="rgb(253,253,253)" stroke="rgb(253,253,253)" stroke-width="1" opacity="0.054901960784313725" d="M 1.5 123 L 2 125.5 L 1 125.5 L 1.5 123 Z " /><path fill="rgb(253,253,253)" stroke="rgb(253,253,253)" stroke-width="1" opacity="0.054901960784313725" d="M 2.5 127 L 7 134.5 L 5 133.5 L 2.5 127 Z " /><path fill="rgb(253,253,253)" stroke="rgb(253,253,253)" stroke-width="1" opacity="0.054901960784313725" d="M 110.5 129 L 111 137.5 L 110 137.5 L 110.5 129 Z " /><path fill="rgb(253,253,253)" stroke="rgb(253,253,253)" stroke-width="1" opacity="0.054901960784313725" d="M 64.5 132 L 65 138.5 L 64 138.5 L 64.5 132 Z " /><path fill="rgb(253,253,253)" stroke="rgb(253,253,253)" stroke-width="1" opacity="0.054901960784313725" d="M 52.5 133 L 53 135.5 L 52 135.5 L 52.5 133 Z " /><path fill="rgb(253,253,253)" stroke="rgb(253,253,253)" stroke-width="1" opacity="0.054901960784313725" d="M 156.5 135 L 155 137.5 L 152.5 141 L 154 138.5 L 156.5 135 Z " /><path fill="rgb(253,253,253)" stroke="rgb(253,253,253)" stroke-width="1" opacity="0.054901960784313725" d="M 7.5 136 L 9.5 139 L 7.5 136 Z " /><path fill="rgb(253,253,253)" stroke="rgb(253,253,253)" stroke-width="1" opacity="0.054901960784313725" d="M 53.5 138 L 54 140.5 L 53 140.5 L 53.5 138 Z " /><path fill="rgb(253,253,253)" stroke="rgb(253,253,253)" stroke-width="1" opacity="0.054901960784313725" d="M 10.5 140 L 19 147.5 L 17.5 147 L 10.5 140 Z " /><path fill="rgb(253,253,253)" stroke="rgb(253,253,253)" stroke-width="1" opacity="0.054901960784313725" d="M 50.5 140 L 51 151.5 L 50 151.5 L 50.5 140 Z " /><path fill="rgb(253,253,253)" stroke="rgb(253,253,253)" stroke-width="1" opacity="0.054901960784313725" d="M 98.5 140 L 99 147.5 L 98 147.5 L 98.5 140 Z " /><path fill="rgb(253,253,253)" stroke="rgb(253,253,253)" stroke-width="1" opacity="0.054901960784313725" d="M 65.5 141 L 66 146.5 L 65 146.5 L 65.5 141 Z " /><path fill="rgb(253,253,253)" stroke="rgb(253,253,253)" stroke-width="1" opacity="0.054901960784313725" d="M 149.5 143 L 145.5 148 L 149.5 143 Z " /><path fill="rgb(253,253,253)" stroke="rgb(253,253,253)" stroke-width="1" opacity="0.054901960784313725" d="M 20.5 148 L 27 151.5 L 25.5 152 Q 20.9 150.8 20.5 148 Z " /><path fill="rgb(253,253,253)" stroke="rgb(253,253,253)" stroke-width="1" opacity="0.054901960784313725" d="M 113.5 148 Q 113.3 152.3 116 153.5 L 113 151.5 L 113.5 148 Z " /><path fill="rgb(253,253,253)" stroke="rgb(253,253,253)" stroke-width="1" opacity="0.054901960784313725" d="M 143.5 148 L 142.5 150 L 141 149.5 L 143.5 148 Z " /><path fill="rgb(253,253,253)" stroke="rgb(253,253,253)" stroke-width="1" opacity="0.054901960784313725" d="M 99.5 149 L 100.5 151 L 99.5 149 Z " /><path fill="rgb(253,253,253)" stroke="rgb(253,253,253)" stroke-width="1" opacity="0.054901960784313725" d="M 110.5 149 L 111 151.5 L 109 152.5 L 110.5 149 Z " /><path fill="rgb(253,253,253)" stroke="rgb(253,253,253)" stroke-width="1" opacity="0.054901960784313725" d="M 49.5 153 L 48.5 155 L 47 154.5 L 49.5 153 Z " /><path fill="rgb(253,253,253)" stroke="rgb(253,253,253)" stroke-width="1" opacity="0.054901960784313725" d="M 129.5 153 L 132 153.5 L 129.5 154 L 129.5 153 Z " /><path fill="rgb(253,253,253)" stroke="rgb(253,253,253)" stroke-width="1" opacity="0.054901960784313725" d="M 36.5 154 L 40 154.5 L 36.5 155 L 36.5 154 Z " /><path fill="rgb(253,253,253)" stroke="rgb(253,253,253)" stroke-width="1" opacity="0.054901960784313725" d="M 117.5 154 L 124 154.5 L 117.5 155 L 117.5 154 Z " /><path fill="rgb(254,254,254)" stroke="rgb(254,254,254)" stroke-width="1" opacity="0.4235294117647059" d="M 73.5 0 L 78 0.5 L 73.5 1 L 73.5 0 Z " /><path fill="rgb(254,254,254)" stroke="rgb(254,254,254)" stroke-width="1" opacity="0.4235294117647059" d="M 86.5 0 L 90 0.5 L 86.5 1 L 86.5 0 Z " /><path fill="rgb(254,254,254)" stroke="rgb(254,254,254)" stroke-width="1" opacity="0.4235294117647059" d="M 124.5 12 L 128.5 17 L 124.5 12 Z " /><path fill="rgb(254,254,254)" stroke="rgb(254,254,254)" stroke-width="1" opacity="0.4235294117647059" d="M 38.5 13 L 35.5 17 L 38.5 13 Z " /><path fill="rgb(254,254,254)" stroke="rgb(254,254,254)" stroke-width="1" opacity="0.4235294117647059" d="M 70.5 17 L 78 17.5 L 70.5 18 L 70.5 17 Z " /><path fill="rgb(254,254,254)" stroke="rgb(254,254,254)" stroke-width="1" opacity="0.4235294117647059" d="M 86.5 17 L 92 17.5 L 86.5 18 L 86.5 17 Z " /><path fill="rgb(254,254,254)" stroke="rgb(254,254,254)" stroke-width="1" opacity="0.4235294117647059" d="M 112.5 23 L 113.5 25 L 112.5 23 Z " /><path fill="rgb(254,254,254)" stroke="rgb(254,254,254)" stroke-width="1" opacity="0.4235294117647059" d="M 116.5 26 L 117.5 28 L 116.5 26 Z " /><path fill="rgb(254,254,254)" stroke="rgb(254,254,254)" stroke-width="1" opacity="0.4235294117647059" d="M 43.5 28 L 42.5 30 L 43.5 28 Z " /><path fill="rgb(254,254,254)" stroke="rgb(254,254,254)" stroke-width="1" opacity="0.4235294117647059" d="M 32.5 49 L 33 51.5 L 32 51.5 L 32.5 49 Z " /><path fill="rgb(254,254,254)" stroke="rgb(254,254,254)" stroke-width="1" opacity="0.4235294117647059" d="M 130.5 49 L 131 52.5 L 130 52.5 L 130.5 49 Z " /><path fill="rgb(254,254,254)" stroke="rgb(254,254,254)" stroke-width="1" opacity="0.4235294117647059" d="M 142.5 53 L 143 58.5 L 142 58.5 L 142.5 53 Z " /><path fill="rgb(254,254,254)" stroke="rgb(254,254,254)" stroke-width="1" opacity="0.4235294117647059" d="M 22.5 57 L 23 62.5 L 22 62.5 L 22.5 57 Z " /><path fill="rgb(254,254,254)" stroke="rgb(254,254,254)" stroke-width="1" opacity="0.4235294117647059" d="M 32.5 65 L 33 67.5 L 32 67.5 L 32.5 65 Z " /><path fill="rgb(254,254,254)" stroke="rgb(254,254,254)" stroke-width="1" opacity="0.4235294117647059" d="M 23.5 68 L 24 71.5 L 23 71.5 L 23.5 68 Z " /><path fill="rgb(254,254,254)" stroke="rgb(254,254,254)" stroke-width="1" opacity="0.4235294117647059" d="M 42.5 70 L 46 71.5 L 44.5 71 Q 41.5 71.5 42.5 70 Z " /><path fill="rgb(254,254,254)" stroke="rgb(254,254,254)" stroke-width="1" opacity="0.4235294117647059" d="M 45.5 77 L 46 81.5 L 45 81.5 L 45.5 77 Z " /><path fill="rgb(254,254,254)" stroke="rgb(254,254,254)" stroke-width="1" opacity="0.4235294117647059" d="M 17.5 79 L 15.5 82 L 17.5 79 Z " /><path fill="rgb(254,254,254)" stroke="rgb(254,254,254)" stroke-width="1" opacity="0.4235294117647059" d="M 147.5 80 L 151.5 85 L 147.5 80 Z " /><path fill="rgb(254,254,254)" stroke="rgb(254,254,254)" stroke-width="1" opacity="0.4235294117647059" d="M 102.5 81 L 103 83.5 L 102 83.5 L 102.5 81 Z " /><path fill="rgb(254,254,254)" stroke="rgb(254,254,254)" stroke-width="1" opacity="0.4235294117647059" d="M 50.5 83 L 51 85.5 L 50 85.5 L 50.5 83 Z " /><path fill="rgb(254,254,254)" stroke="rgb(254,254,254)" stroke-width="1" opacity="0.4235294117647059" d="M 45.5 84 L 46 88.5 L 45 88.5 L 45.5 84 Z " /><path fill="rgb(254,254,254)" stroke="rgb(254,254,254)" stroke-width="1" opacity="0.4235294117647059" d="M 10.5 86 L 9.5 88 L 10.5 86 Z " /><path fill="rgb(254,254,254)" stroke="rgb(254,254,254)" stroke-width="1" opacity="0.4235294117647059" d="M 7.5 90 L 6.5 92 L 7.5 90 Z " /><path fill="rgb(254,254,254)" stroke="rgb(254,254,254)" stroke-width="1" opacity="0.4235294117647059" d="M 61.5 94 L 62 97.5 L 61 97.5 L 61.5 94 Z " /><path fill="rgb(254,254,254)" stroke="rgb(254,254,254)" stroke-width="1" opacity="0.4235294117647059" d="M 116.5 94 L 117 103.5 L 116 103.5 L 116.5 94 Z " /><path fill="rgb(254,254,254)" stroke="rgb(254,254,254)" stroke-width="1" opacity="0.4235294117647059" d="M 101.5 96 L 102 104.5 L 101 104.5 L 101.5 96 Z " /><path fill="rgb(254,254,254)" stroke="rgb(254,254,254)" stroke-width="1" opacity="0.4235294117647059" d="M 46.5 98 L 47 100.5 L 46 100.5 L 46.5 98 Z " /><path fill="rgb(254,254,254)" stroke="rgb(254,254,254)" stroke-width="1" opacity="0.4235294117647059" d="M 52.5 100 L 53 104.5 L 52 104.5 L 52.5 100 Z " /><path fill="rgb(254,254,254)" stroke="rgb(254,254,254)" stroke-width="1" opacity="0.4235294117647059" d="M 111.5 100 L 112 104.5 L 111 104.5 L 111.5 100 Z " /><path fill="rgb(254,254,254)" stroke="rgb(254,254,254)" stroke-width="1" opacity="0.4235294117647059" d="M 160.5 100 L 161 102.5 L 160 102.5 L 160.5 100 Z " /><path fill="rgb(254,254,254)" stroke="rgb(254,254,254)" stroke-width="1" opacity="0.4235294117647059" d="M 1.5 105 L 2 111.5 L 1 111.5 L 1.5 105 Z " /><path fill="rgb(254,254,254)" stroke="rgb(254,254,254)" stroke-width="1" opacity="0.4235294117647059" d="M 47.5 106 L 48 108.5 L 47 108.5 L 47.5 106 Z " /><path fill="rgb(254,254,254)" stroke="rgb(254,254,254)" stroke-width="1" opacity="0.4235294117647059" d="M 161.5 108 L 162 112.5 L 161 112.5 L 161.5 108 Z " /><path fill="rgb(254,254,254)" stroke="rgb(254,254,254)" stroke-width="1" opacity="0.4235294117647059" d="M 115.5 110 L 116 114.5 L 115 114.5 L 115.5 110 Z " /><path fill="rgb(254,254,254)" stroke="rgb(254,254,254)" stroke-width="1" opacity="0.4235294117647059" d="M 110.5 111 L 111 128.5 L 110 128.5 L 110.5 111 Z " /><path fill="rgb(254,254,254)" stroke="rgb(254,254,254)" stroke-width="1" opacity="0.4235294117647059" d="M 100.5 113 L 101 118.5 L 100 118.5 L 100.5 113 Z " /><path fill="rgb(254,254,254)" stroke="rgb(254,254,254)" stroke-width="1" opacity="0.4235294117647059" d="M 62.5 114 L 63 120.5 L 62 120.5 L 62.5 114 Z " /><path fill="rgb(254,254,254)" stroke="rgb(254,254,254)" stroke-width="1" opacity="0.4235294117647059" d="M 1.5 119 L 2 122.5 L 1 122.5 L 1.5 119 Z " /><path fill="rgb(254,254,254)" stroke="rgb(254,254,254)" stroke-width="1" opacity="0.4235294117647059" d="M 48.5 119 L 49 121.5 L 48 121.5 L 48.5 119 Z " /><path fill="rgb(254,254,254)" stroke="rgb(254,254,254)" stroke-width="1" opacity="0.4235294117647059" d="M 161.5 120 L 162 123.5 L 161 123.5 L 161.5 120 Z " /><path fill="rgb(254,254,254)" stroke="rgb(254,254,254)" stroke-width="1" opacity="0.4235294117647059" d="M 2.5 126 L 3.5 128 L 2.5 126 Z " /><path fill="rgb(254,254,254)" stroke="rgb(254,254,254)" stroke-width="1" opacity="0.4235294117647059" d="M 63.5 127 L 64 132.5 L 63 132.5 L 63.5 127 Z " /><path fill="rgb(254,254,254)" stroke="rgb(254,254,254)" stroke-width="1" opacity="0.4235294117647059" d="M 49.5 130 L 50 138.5 L 49 138.5 L 49.5 130 Z " /><path fill="rgb(254,254,254)" stroke="rgb(254,254,254)" stroke-width="1" opacity="0.4235294117647059" d="M 113.5 132 L 114 147.5 L 113 147.5 L 113.5 132 Z " /><path fill="rgb(254,254,254)" stroke="rgb(254,254,254)" stroke-width="1" opacity="0.4235294117647059" d="M 156.5 134 L 155.5 136 L 156.5 134 Z " /><path fill="rgb(254,254,254)" stroke="rgb(254,254,254)" stroke-width="1" opacity="0.4235294117647059" d="M 7.5 135 L 8.5 137 L 7.5 135 Z " /><path fill="rgb(254,254,254)" stroke="rgb(254,254,254)" stroke-width="1" opacity="0.4235294117647059" d="M 10.5 139 L 13.5 143 L 10.5 139 Z " /><path fill="rgb(254,254,254)" stroke="rgb(254,254,254)" stroke-width="1" opacity="0.4235294117647059" d="M 151.5 141 L 150.5 143 L 151.5 141 Z " /><path fill="rgb(254,254,254)" stroke="rgb(254,254,254)" stroke-width="1" opacity="0.4235294117647059" d="M 15.5 144 L 16.5 146 L 15.5 144 Z " /><path fill="rgb(254,254,254)" stroke="rgb(254,254,254)" stroke-width="1" opacity="0.4235294117647059" d="M 145.5 146 L 144.5 148 L 145.5 146 Z " /><path fill="rgb(254,254,254)" stroke="rgb(254,254,254)" stroke-width="1" opacity="0.4235294117647059" d="M 40.5 154 L 47 154.5 L 40.5 155 L 40.5 154 Z " /><path fill="rgb(255,255,255)" stroke="rgb(255,255,255)" stroke-width="1" opacity="1" d="M 74.5 2 Q 110.3 0.3 127 17.5 Q 130.6 19.4 130 25.5 L 136 34.5 L 141 52.5 L 141 59.5 L 138 75.5 L 147 81 L 155 91.5 L 159 100.5 L 160 122.5 Q 155.8 137.8 144.5 146 L 132.5 152 L 118.5 153 L 116 150.5 L 115 146.5 L 115 124.5 L 117 117.5 L 117 104.5 L 118 103.5 L 119 86.5 L 118 82.5 L 119 81.5 L 119 72 L 129.5 73 L 132 69.5 L 132 47.5 L 127 33.5 L 121.5 28 Q 114.6 21.4 104.5 18 L 91.5 17 L 90.5 16 L 67.5 16 L 53.5 20 L 39 29 L 39 31 Q 36.3 29.9 37 32.5 Q 28.1 43.6 30 65.5 L 33.5 74 L 42.5 72 L 44 73.5 L 44 93.5 L 45 94.5 L 45 101.5 L 47 110.5 L 47 120.5 L 48 121.5 L 49 150.5 L 48 153 L 34.5 153 L 16 144 L 16 142 Q 13.3 143.1 14 140.5 Q 6.3 133.7 3 122.5 L 3 106.5 Q 5.8 91.3 15.5 83 L 26 75.5 L 27 73.5 L 24 63.5 L 24 47.5 L 29 32.5 L 40 14 L 54.5 6 L 74.5 2 Z " /><path fill="rgb(255,255,255)" stroke="rgb(255,255,255)" stroke-width="1" opacity="1" d="M 108.5 76 L 110 77.5 L 110 90.5 L 111 91.5 L 110 92.5 L 110 111.5 L 109 112.5 L 109 137.5 Q 106.4 140.4 107 146.5 L 109 151.5 L 107.5 151 L 101 148.5 L 101 123.5 L 102 122.5 L 102 110.5 L 103 109.5 L 104 80.5 L 105 77 L 108.5 76 Z " /><path fill="rgb(255,255,255)" stroke="rgb(255,255,255)" stroke-width="1" opacity="1" d="M 52 77 Q 57.5 75.8 59 79.5 L 60 83.5 L 61 119.5 L 62 120.5 L 62 136.5 L 64 144.5 L 62 150 L 56 150 L 56 139.5 L 54 133.5 L 54 99.5 L 53 98.5 L 52 77 Z " /></svg>