<?xml version="1.0" encoding="UTF-8"?>
<svg version="1.1" xmlns="http://www.w3.org/2000/svg" width="64" height="64">
<path d="M0 0 C3.48715894 1.98396827 6.19673639 4.39347279 8 8 C8.52113171 13.22840334 8.64273534 17.64036754 6.375 22.4375 C2.84454026 26.24668025 -0.26955712 28.57946214 -5.359375 29.81640625 C-9.44037309 31.1431685 -11.37832982 32.71924127 -14.4375 35.6875 C-15.38367187 36.58726563 -16.32984375 37.48703125 -17.3046875 38.4140625 C-18.19414063 39.26742187 -19.08359375 40.12078125 -20 41 C-21.34533515 42.19749612 -22.69852518 43.3862788 -24.0625 44.5625 C-27.11610088 47.21480631 -30.12552229 49.91161256 -33.125 52.625 C-33.96804687 53.3778125 -34.81109375 54.130625 -35.6796875 54.90625 C-37.06125709 56.15291885 -38.42726256 57.41776783 -39.7578125 58.71875 C-41.25 60.125 -41.25 60.125 -44 62 C-47.1875 61.625 -47.1875 61.625 -50 61 C-51.7087646 62.37514541 -51.7087646 62.37514541 -53 64 C-53.99 64 -54.98 64 -56 64 C-55.38722388 61.03824877 -54.74627478 59.61941217 -53 57 C-53.268125 56.2575 -53.53625 55.515 -53.8125 54.75 C-54 52 -54 52 -52.76171875 50.40234375 C-51.529451 49.20286361 -50.27761805 48.02330599 -49.01171875 46.859375 C-45.72538567 43.82190986 -42.90662798 40.3965091 -40 37 C-39.03397059 35.87490002 -38.06781443 34.74990888 -37.1015625 33.625 C-33.2952524 29.19126285 -33.2952524 29.19126285 -29.50317383 24.74536133 C-28.46035267 23.53452351 -27.4016581 22.33724686 -26.33081055 21.15112305 C-25.79109619 20.54695557 -25.25138184 19.94278809 -24.6953125 19.3203125 C-24.20434082 18.78035645 -23.71336914 18.24040039 -23.20751953 17.68408203 C-21.46183645 15.24944356 -21.10712939 12.81991553 -20.55078125 9.92578125 C-19.42075527 5.97469752 -16.64396324 3.01652311 -13.16796875 0.8671875 C-8.89390526 -0.84243789 -4.49558149 -0.74820679 0 0 Z M-12 6 C-12 9.87360939 -11.83314373 11.99166249 -9.328125 15.0234375 C-5.37758298 18.84556374 -5.37758298 18.84556374 -0.234375 20.19140625 C0.50296875 20.12824219 1.2403125 20.06507812 2 20 C3.80581977 17.34438268 4 15.82889767 4 12.5625 C2.6484429 7.74757782 1.19238291 6.66055069 -3 4 C-6.64009631 3.39331728 -8.85779986 4.13795547 -12 6 Z M-17 13 C-16.7171537 16.67700184 -16.48127046 19.29660472 -14.375 22.375 C-11.29660472 24.48127046 -8.67700184 24.7171537 -5 25 C-5.70125 24.319375 -6.4025 23.63875 -7.125 22.9375 C-9.85429761 20.22379838 -12.31354441 17.31945276 -14.765625 14.35546875 C-15.17296875 13.90816406 -15.5803125 13.46085938 -16 13 C-16.33 13 -16.66 13 -17 13 Z M-22 28 C-22.33 28.99 -22.66 29.98 -23 31 C-22.01 30.67 -21.02 30.34 -20 30 C-20 29.34 -20 28.68 -20 28 C-20.66 28 -21.32 28 -22 28 Z " fill="#FFFFFF" transform="translate(56,0)"/>
</svg>
